#Comment line ignore any data following # character 
#Hierarchical Translation and Rotation (.htr) file 
[Header]	
#Header keywords are followed by a single value 
FileType HTR		#Single word string
DataType HTRS		#Translation followed by rotation and scale data
FileVersion 1		#integer
NumSegments 64		#integer
NumFrames 3		#integer
DataFrameRate 30		#integer, data frame rate in this file
EulerRotationOrder ZYX
CalibrationUnits mm
RotationUnits Degrees
GlobalAxisofGravity Y
BoneLengthAxis Y
ScaleFactor 1.00
[SegmentNames&Hierarchy]
#CHILD	PARENT
Pinger_Root GLOBAL
Pelvis Pinger_Root
L_Hip Pelvis
R_Hip Pelvis
Rear_Leg01 Pelvis
Spine1 Pelvis
L_Leg01 L_Hip
L_Leg02 L_Leg01
L_Leg03 L_Leg02
L_Foot L_Leg03
L_Toe1_01 L_Foot
L_Toe2_01 L_Foot
L_Toe3_01 L_Foot
planeAlignerLeft L_Foot
L_Toe1_02 L_Toe1_01
L_Toe1_03 L_Toe1_02
L_Toe2_02 L_Toe2_01
L_Toe2_03 L_Toe2_02
L_Toe3_02 L_Toe3_01
L_Toe3_03 L_Toe3_02
planeLockWeightLeft planeAlignerLeft
R_Leg01 R_Hip
R_Leg02 R_Leg01
R_Leg03 R_Leg02
R_Foot R_Leg03
planeAlignerRight R_Foot
R_Toe1_01 R_Foot
R_Toe2_01 R_Foot
R_Toe3_01 R_Foot
planeLockWeightRight planeAlignerRight
R_Toe1_02 R_Toe1_01
R_Toe1_03 R_Toe1_02
R_Toe2_02 R_Toe2_01
R_Toe2_03 R_Toe2_02
R_Toe3_02 R_Toe3_01
R_Toe3_03 R_Toe3_02
Rear_Leg02 Rear_Leg01
Rear_Leg03 Rear_Leg02
Rear_Leg04 Rear_Leg03
Rear_Foot Rear_Leg04
planeAlignerCenter Rear_Foot
Rear_Toe1_01 Rear_Foot
Rear_Toe2_01 Rear_Foot
Rear_Toe3_01 Rear_Foot
planeLockWeightCenter planeAlignerCenter
Rear_Toe1_02 Rear_Toe1_01
Rear_Toe1_03 Rear_Toe1_02
Rear_Toe2_02 Rear_Toe2_01
Rear_Toe2_03 Rear_Toe2_02
Rear_Toe3_02 Rear_Toe3_01
Rear_Toe3_03 Rear_Toe3_02
Back_Bone Spine1
Head Spine1
Motor_Bone Back_Bone
Ping_Mechanism Back_Bone
BN_LookIK Head
bottomMouth Head
L_Mouth01 Head
L_mouthFront Head
mouthGun Head
R_Mouth01 Head
R_mouthFront Head
TopMouth Head
weapon_bone Head
[BasePosition]
#SegmentName Tx, Ty, Tz, Rx, Ry, Rz, BoneLength
Pinger_Root 0.000000 0.000000 0.000000 -90.000000 0.000000 0.000000 10.000000 
Pelvis 0.000000 0.000000 0.000000 0.000000 0.000000 0.000000 10.000000 
L_Hip 0.000000 0.000000 0.000000 0.000000 0.000000 0.000000 10.000000 
R_Hip 0.000000 0.000000 0.000000 0.000000 0.000000 0.000000 10.000000 
Rear_Leg01 0.000000 0.000000 0.000000 0.000000 0.000000 0.000000 10.000000 
Spine1 0.000000 0.000000 0.000000 0.000000 0.000000 0.000000 10.000000 
L_Leg01 0.000000 0.000000 0.000000 0.000000 0.000000 0.000000 10.000000 
L_Leg02 0.000000 0.000000 0.000000 0.000000 0.000000 0.000000 10.000000 
L_Leg03 0.000000 0.000000 0.000000 0.000000 0.000000 0.000000 10.000000 
L_Foot 0.000000 0.000000 0.000000 0.000000 0.000000 0.000000 10.000000 
L_Toe1_01 0.000000 0.000000 0.000000 0.000000 0.000000 0.000000 10.000000 
L_Toe2_01 0.000000 0.000000 0.000000 0.000000 0.000000 0.000000 10.000000 
L_Toe3_01 0.000000 0.000000 0.000000 0.000000 0.000000 0.000000 10.000000 
planeAlignerLeft 0.000000 0.000000 0.000000 0.000000 0.000000 0.000000 10.000000 
L_Toe1_02 0.000000 0.000000 0.000000 0.000000 0.000000 0.000000 10.000000 
L_Toe1_03 0.000000 0.000000 0.000000 0.000000 0.000000 0.000000 10.000000 
L_Toe2_02 0.000000 0.000000 0.000000 0.000000 0.000000 0.000000 10.000000 
L_Toe2_03 0.000000 0.000000 0.000000 0.000000 0.000000 0.000000 10.000000 
L_Toe3_02 0.000000 0.000000 0.000000 0.000000 0.000000 0.000000 10.000000 
L_Toe3_03 0.000000 0.000000 0.000000 0.000000 0.000000 0.000000 10.000000 
planeLockWeightLeft 0.000000 0.000000 0.000000 0.000000 0.000000 0.000000 10.000000 
R_Leg01 0.000000 0.000000 0.000000 0.000000 0.000000 0.000000 10.000000 
R_Leg02 0.000000 0.000000 0.000000 0.000000 0.000000 0.000000 10.000000 
R_Leg03 0.000000 0.000000 0.000000 0.000000 0.000000 0.000000 10.000000 
R_Foot 0.000000 0.000000 0.000000 0.000000 0.000000 0.000000 10.000000 
planeAlignerRight 0.000000 0.000000 0.000000 0.000000 0.000000 0.000000 10.000000 
R_Toe1_01 0.000000 0.000000 0.000000 0.000000 0.000000 0.000000 10.000000 
R_Toe2_01 0.000000 0.000000 0.000000 0.000000 0.000000 0.000000 10.000000 
R_Toe3_01 0.000000 0.000000 0.000000 0.000000 0.000000 0.000000 10.000000 
planeLockWeightRight 0.000000 0.000000 0.000000 0.000000 0.000000 0.000000 10.000000 
R_Toe1_02 0.000000 0.000000 0.000000 0.000000 0.000000 0.000000 10.000000 
R_Toe1_03 0.000000 0.000000 0.000000 0.000000 0.000000 0.000000 10.000000 
R_Toe2_02 0.000000 0.000000 0.000000 0.000000 0.000000 0.000000 10.000000 
R_Toe2_03 0.000000 0.000000 0.000000 0.000000 0.000000 0.000000 10.000000 
R_Toe3_02 0.000000 0.000000 0.000000 0.000000 0.000000 0.000000 10.000000 
R_Toe3_03 0.000000 0.000000 0.000000 0.000000 0.000000 0.000000 10.000000 
Rear_Leg02 0.000000 0.000000 0.000000 0.000000 0.000000 0.000000 10.000000 
Rear_Leg03 0.000000 0.000000 0.000000 0.000000 0.000000 0.000000 10.000000 
Rear_Leg04 0.000000 0.000000 0.000000 0.000000 0.000000 0.000000 10.000000 
Rear_Foot 0.000000 0.000000 0.000000 0.000000 0.000000 0.000000 10.000000 
planeAlignerCenter 0.000000 0.000000 0.000000 0.000000 0.000000 0.000000 10.000000 
Rear_Toe1_01 0.000000 0.000000 0.000000 0.000000 0.000000 0.000000 10.000000 
Rear_Toe2_01 0.000000 0.000000 0.000000 0.000000 0.000000 0.000000 10.000000 
Rear_Toe3_01 0.000000 0.000000 0.000000 0.000000 0.000000 0.000000 10.000000 
planeLockWeightCenter 0.000000 0.000000 0.000000 0.000000 0.000000 0.000000 10.000000 
Rear_Toe1_02 0.000000 0.000000 0.000000 0.000000 0.000000 0.000000 10.000000 
Rear_Toe1_03 0.000000 0.000000 0.000000 0.000000 0.000000 0.000000 10.000000 
Rear_Toe2_02 0.000000 0.000000 0.000000 0.000000 0.000000 0.000000 10.000000 
Rear_Toe2_03 0.000000 0.000000 0.000000 0.000000 0.000000 0.000000 10.000000 
Rear_Toe3_02 0.000000 0.000000 0.000000 0.000000 0.000000 0.000000 10.000000 
Rear_Toe3_03 0.000000 0.000000 0.000000 0.000000 0.000000 0.000000 10.000000 
Back_Bone 0.000000 0.000000 0.000000 0.000000 0.000000 0.000000 10.000000 
Head 0.000000 0.000000 0.000000 0.000000 0.000000 0.000000 10.000000 
Motor_Bone 0.000000 0.000000 0.000000 0.000000 0.000000 0.000000 10.000000 
Ping_Mechanism 0.000000 0.000000 0.000000 0.000000 0.000000 0.000000 10.000000 
BN_LookIK 0.000000 0.000000 0.000000 0.000000 0.000000 0.000000 10.000000 
bottomMouth 0.000000 0.000000 0.000000 0.000000 0.000000 0.000000 10.000000 
L_Mouth01 0.000000 0.000000 0.000000 0.000000 0.000000 0.000000 10.000000 
L_mouthFront 0.000000 0.000000 0.000000 0.000000 0.000000 0.000000 10.000000 
mouthGun 0.000000 0.000000 0.000000 0.000000 0.000000 0.000000 10.000000 
R_Mouth01 0.000000 0.000000 0.000000 0.000000 0.000000 0.000000 10.000000 
R_mouthFront 0.000000 0.000000 0.000000 0.000000 0.000000 0.000000 10.000000 
TopMouth 0.000000 0.000000 0.000000 0.000000 0.000000 0.000000 10.000000 
weapon_bone 0.000000 0.000000 0.000000 0.000000 0.000000 0.000000 10.000000 
#Beginning of Data. Separated by tabs
#Fr	Tx	Ty	Tz	Rx	Ry	Rz	SF
[Pinger_Root]
24 0.000000 0.000000 0.000000 -0.000075 -0.000000 -0.000020 0.000000
25 0.000000 0.000000 0.000000 -0.000075 -0.000000 -0.000020 0.000000
26 0.000000 0.000000 0.000000 -0.000075 -0.000000 -0.000020 0.000000
[Pelvis]
24 -261.476471 -748.434509 3456.201172 -143.070465 -73.397545 131.701019 3545.962402
25 -261.193390 -744.610657 3451.076172 -143.743103 -73.279419 132.467865 3540.140625
26 -260.263641 -741.541504 3457.637695 -144.405609 -73.158798 133.224609 3545.825684
[L_Hip]
24 5.766392 125.831482 872.656799 -154.058868 -57.156254 66.525391 881.701050
25 5.766392 125.831482 872.656799 -154.058868 -57.156254 66.525391 881.701050
26 5.766392 125.831482 872.656799 -154.058868 -57.156254 66.525391 881.701050
[R_Hip]
24 5.765438 125.836372 -872.654907 -2.520501 82.413048 74.352089 881.699829
25 5.765438 125.836372 -872.654907 -2.520501 82.413048 74.352089 881.699829
26 5.765438 125.836372 -872.654907 -2.520501 82.413048 74.352089 881.699829
[Rear_Leg01]
24 -192.298416 -925.602966 -0.001907 118.086212 -6.691514 -144.020187 945.367432
25 -192.298416 -925.602966 -0.001907 117.980469 -6.943375 -143.863113 945.367432
26 -192.298416 -925.602966 -0.001907 117.873985 -7.194947 -143.705505 945.367432
[Spine1]
24 290.604584 5.007505 0.000477 15.769441 4.980956 15.954463 290.647736
25 290.604584 5.007505 0.000477 15.719809 5.339373 15.573161 290.647736
26 290.604584 5.007505 0.000477 15.667744 5.697461 15.191309 290.647736
[L_Leg01]
24 761.932007 -0.002384 -0.069261 17.947950 -38.580715 -6.955874 761.932068
25 761.932007 -0.002384 -0.069261 17.995092 -38.728798 -6.538250 761.932068
26 761.932007 -0.002384 -0.069261 18.262730 -38.783581 -6.601928 761.932068
[L_Leg02]
24 1441.140503 -0.000954 -0.000715 -1.309987 0.463247 -105.685158 1441.140503
25 1441.140503 -0.000954 -0.000715 -1.287098 0.457970 -106.143799 1441.140503
26 1441.140503 -0.000954 -0.000715 -1.293775 0.457687 -106.081879 1441.140503
[L_Leg03]
24 1686.963989 -0.000715 -0.000954 0.029391 -0.010217 102.362381 1686.963989
25 1686.963989 -0.000715 -0.000954 0.029387 -0.010229 102.406807 1686.963989
26 1686.963989 -0.000715 -0.000954 0.029383 -0.010240 102.451210 1686.963989
[L_Foot]
24 3041.570068 -30.715107 11.297464 -1.144952 2.598086 22.385675 3041.746094
25 3041.570068 -30.715107 11.297464 -1.197046 2.598302 22.384594 3041.746094
26 3041.570068 -30.715107 11.297464 -1.249141 2.598518 22.383520 3041.746094
[L_Toe1_01]
24 -188.216690 -224.732346 -21.137953 94.280670 -28.131250 179.902283 293.899567
25 -188.216690 -224.732346 -21.137953 94.280670 -28.131254 179.902283 293.899567
26 -188.216690 -224.732346 -21.137953 94.280670 -28.131250 179.902283 293.899567
[L_Toe2_01]
24 200.746536 -219.926590 148.838394 -108.981308 -14.927252 -28.370838 332.896027
25 200.746536 -219.926590 148.838394 -108.981316 -14.927184 -28.370943 332.896027
26 200.746536 -219.926590 148.838394 -108.981293 -14.927111 -28.371038 332.896027
[L_Toe3_01]
24 188.832520 -219.859131 -191.078659 -119.528816 36.514465 -78.862701 347.140900
25 188.832520 -219.859131 -191.078659 -119.528816 36.514465 -78.862701 347.140900
26 188.832520 -219.859131 -191.078659 -119.528816 36.514465 -78.862701 347.140900
[planeAlignerLeft]
24 0.812531 -811.448792 -0.314951 0.000000 -90.000000 -90.001900 811.449280
25 0.812531 -811.448792 -0.314951 0.000000 -90.000000 -90.001900 811.449280
26 0.812531 -811.448792 -0.314951 0.000000 -90.000000 -90.001900 811.449280
[L_Toe1_02]
24 413.761139 0.000477 0.000000 0.001661 0.070897 0.001661 413.761139
25 413.761139 0.000477 0.000000 0.001661 0.070897 0.001661 413.761139
26 413.761139 0.000477 0.000000 0.001661 0.070897 0.001661 413.761139
[L_Toe1_03]
24 464.317322 0.000358 -0.000089 0.001673 -0.448396 -0.003292 464.317322
25 464.317322 0.000358 -0.000089 0.001673 -0.448396 -0.003292 464.317322
26 464.317322 0.000358 -0.000089 0.001673 -0.448396 -0.003292 464.317322
[L_Toe2_02]
24 342.235809 -0.000477 0.000238 0.004684 -81.232803 0.004684 342.235809
25 342.235809 -0.000477 0.000238 0.004684 -81.233078 0.004684 342.235809
26 342.235809 -0.000477 0.000238 0.004684 -81.233345 0.004684 342.235809
[L_Toe2_03]
24 420.210846 -0.000715 0.000000 179.993195 44.163803 -179.999222 420.210846
25 420.210846 -0.000715 0.000000 179.993195 44.163803 -179.999222 420.210846
26 420.210846 -0.000715 0.000000 179.993195 44.163803 -179.999222 420.210846
[L_Toe3_02]
24 329.270111 0.000954 0.000000 0.004675 -84.675125 0.004675 329.270111
25 329.270111 0.000954 0.000000 0.004675 -84.674431 0.004675 329.270111
26 329.270111 0.000954 0.000000 0.004675 -84.673843 0.004675 329.270111
[L_Toe3_03]
24 439.137451 -0.001907 0.000954 179.993454 37.691116 -179.998764 439.137451
25 439.137451 -0.001907 0.000954 179.993454 37.691124 -179.998764 439.137451
26 439.137451 -0.001907 0.000954 179.993454 37.691116 -179.998764 439.137451
[planeLockWeightLeft]
24 -0.000954 0.000238 -0.000305 -0.011826 -0.004376 0.005620 0.001029
25 -0.000954 0.000238 -0.000305 -0.011826 -0.004376 0.005620 0.001029
26 -0.000954 0.000238 -0.000305 -0.011826 -0.004376 0.005620 0.001029
[R_Leg01]
24 761.455627 -0.001907 -0.000358 103.821068 -58.886444 72.742447 761.455688
25 761.455627 -0.001907 -0.000358 103.963097 -58.678696 72.778564 761.455688
26 761.455627 -0.001907 -0.000358 103.940903 -58.356522 73.050911 761.455688
[R_Leg02]
24 1441.140625 0.000000 -0.000238 1.210951 -0.472734 -96.530312 1441.140625
25 1441.140625 0.000000 -0.000238 1.211033 -0.472523 -96.550194 1441.140625
26 1441.140625 0.000000 -0.000238 1.208549 -0.474658 -96.244293 1441.140625
[R_Leg03]
24 1686.963989 0.000954 0.001431 -0.049397 0.013463 96.845161 1686.963989
25 1686.963989 0.000954 0.001431 -0.049379 0.013529 96.997147 1686.963989
26 1686.963989 0.000954 0.001431 -0.049396 0.013466 96.851776 1686.963989
[R_Foot]
24 3041.560059 -30.531288 -11.204481 1.478677 -24.831966 30.315714 3041.734131
25 3041.560059 -30.531288 -11.204481 1.495702 -24.863176 30.392269 3041.734131
26 3041.560059 -30.531288 -11.204481 1.512683 -24.894413 30.468840 3041.734131
[planeAlignerRight]
24 -0.635147 -812.270569 -0.364304 0.000000 -89.960434 -90.005180 812.270874
25 -0.635147 -812.270569 -0.364304 0.000000 -89.960434 -90.005180 812.270874
26 -0.635147 -812.270569 -0.364304 0.000000 -89.960434 -90.005180 812.270874
[R_Toe1_01]
24 -188.383347 -224.864899 21.052242 77.501526 2.586503 -171.440872 294.101532
25 -188.383347 -224.864899 21.052242 77.501526 2.586503 -171.440872 294.101532
26 -188.383347 -224.864899 21.052242 77.501526 2.586503 -171.440872 294.101532
[R_Toe2_01]
24 200.637817 -220.002121 -148.787384 -87.003738 41.715183 -47.421780 332.857574
25 200.637817 -220.002121 -148.787384 -87.003372 41.717705 -47.420807 332.857574
26 200.637817 -220.002121 -148.787384 -87.003014 41.720226 -47.419834 332.857574
[R_Toe3_01]
24 188.606735 -220.092957 191.126343 -74.776886 -14.743338 -63.952141 347.192566
25 188.606735 -220.092957 191.126343 -74.776886 -14.743338 -63.952141 347.192566
26 188.606735 -220.092957 191.126343 -74.776886 -14.743338 -63.952141 347.192566
[planeLockWeightRight]
24 -0.000477 0.000000 0.000000 -0.011823 -0.004379 -0.000027 0.000477
25 -0.000477 0.000000 0.000000 -0.011823 -0.004379 -0.000027 0.000477
26 -0.000477 0.000000 0.000000 -0.011823 -0.004379 -0.000027 0.000477
[R_Toe1_02]
24 413.762085 0.000477 -0.000119 0.001417 -21.784986 0.001417 413.762085
25 413.762085 0.000477 -0.000119 0.001417 -21.785202 0.001417 413.762085
26 413.762085 0.000477 -0.000119 0.001417 -21.785421 0.001417 413.762085
[R_Toe1_03]
24 464.317810 0.000000 0.001088 0.000898 28.937305 -0.003161 464.317810
25 464.317810 0.000000 0.001088 0.000898 28.937529 -0.003161 464.317810
26 464.317810 0.000000 0.001088 0.000898 28.937742 -0.003161 464.317810
[R_Toe2_02]
24 342.234741 -0.000954 0.000238 -0.002334 -78.761276 -0.002334 342.234741
25 342.234741 -0.000954 0.000238 -0.002334 -78.761276 -0.002334 342.234741
26 342.234741 -0.000954 0.000238 -0.002334 -78.761276 -0.002334 342.234741
[R_Toe2_03]
24 420.210846 0.000715 -0.000268 -179.994690 71.310875 -179.998230 420.210846
25 420.210846 0.000715 -0.000268 -179.994690 71.311150 -179.998230 420.210846
26 420.210846 0.000715 -0.000268 -179.994690 71.311432 -179.998230 420.210846
[R_Toe3_02]
24 329.270355 -0.000477 -0.000954 0.001175 -84.039810 0.001175 329.270355
25 329.270355 -0.000477 -0.000954 0.001175 -84.043526 0.001175 329.270355
26 329.270355 -0.000477 -0.000954 0.001175 -84.047279 0.001175 329.270355
[R_Toe3_03]
24 439.137939 0.000238 0.001431 -179.995331 57.508499 -179.988052 439.137939
25 439.137939 0.000238 0.001431 -179.995331 57.508759 -179.988052 439.137939
26 439.137939 0.000238 0.001431 -179.995331 57.508991 -179.988052 439.137939
[Rear_Leg02]
24 1162.777710 -0.029802 0.005960 -38.757107 39.415981 -147.532532 1162.777710
25 1162.777710 -0.029802 0.005960 -38.811455 39.364342 -147.636017 1162.777710
26 1162.777710 -0.029802 0.005960 -38.613461 39.553158 -147.330612 1162.777710
[Rear_Leg03]
24 607.192505 -0.013351 -0.073195 0.010256 -0.005565 73.322037 607.192505
25 607.192505 -0.013351 -0.073195 0.010258 -0.005562 73.291229 607.192505
26 607.192505 -0.013351 -0.073195 0.010259 -0.005559 73.260406 607.192505
[Rear_Leg04]
24 995.874512 -0.020504 -0.011921 -0.041865 -0.014707 78.650505 995.874573
25 995.874512 -0.020504 -0.011921 -0.045010 -0.018507 78.714455 995.874573
26 995.874512 -0.020504 -0.011921 -0.041844 -0.014767 78.484367 995.874573
[Rear_Foot]
24 3096.176270 -0.067472 -0.041425 94.920319 43.315266 -70.188278 3096.176270
25 3096.176270 -0.067472 -0.041425 94.967384 43.309792 -70.115929 3096.176270
26 3096.176270 -0.067472 -0.041425 95.014404 43.304253 -70.043579 3096.176270
[planeAlignerCenter]
24 0.350077 0.966311 -838.790894 0.000009 0.000003 -179.999985 838.791565
25 0.350077 0.966311 -838.790894 0.000009 0.000003 -179.999985 838.791565
26 0.350077 0.966311 -838.790894 0.000009 0.000003 -179.999985 838.791565
[Rear_Toe1_01]
24 0.653352 83.966492 -371.173737 -30.741226 22.790867 86.617538 380.553192
25 0.653352 83.966492 -371.173737 -30.741528 22.790501 86.617073 380.553192
26 0.653352 83.966492 -371.173737 -30.741842 22.790140 86.616623 380.553192
[Rear_Toe2_01]
24 178.200760 -294.826019 -362.060547 -8.138556 -0.243836 -62.300613 499.765686
25 178.200760 -294.826019 -362.060547 -8.138670 -0.244115 -62.298363 499.765686
26 178.200760 -294.826019 -362.060547 -8.138783 -0.244395 -62.296101 499.765686
[Rear_Toe3_01]
24 -153.359680 -308.780914 -362.060852 3.735339 13.484858 -102.786430 499.952881
25 -153.359680 -308.780914 -362.060852 3.735364 13.485420 -102.783691 499.952881
26 -153.359680 -308.780914 -362.060852 3.735388 13.485984 -102.780945 499.952881
[planeLockWeightCenter]
24 -0.000062 0.000238 0.000000 -0.011814 -0.004373 -0.000015 0.000246
25 -0.000062 0.000238 0.000000 -0.011814 -0.004373 -0.000015 0.000246
26 -0.000062 0.000238 0.000000 -0.011814 -0.004373 -0.000015 0.000246
[Rear_Toe1_02]
24 379.707825 0.194073 0.000477 -0.006719 -30.019583 -0.006719 379.707855
25 379.707825 0.194073 0.000477 -0.006719 -30.019583 -0.006719 379.707855
26 379.707825 0.194073 0.000477 -0.006719 -30.019583 -0.006719 379.707855
[Rear_Toe1_03]
24 500.129700 0.165701 0.000119 -179.994812 70.599228 -179.998367 500.129761
25 500.129700 0.165701 0.000119 -179.994812 70.601891 -179.998367 500.129761
26 500.129700 0.165701 0.000119 -179.994812 70.604576 -179.998367 500.129761
[Rear_Toe2_02]
24 340.494507 0.000238 -0.000954 0.001661 0.063480 0.001661 340.494507
25 340.494507 0.000238 -0.000954 0.001661 0.063334 0.001661 340.494507
26 340.494507 0.000238 -0.000954 0.001661 0.063189 0.001661 340.494507
[Rear_Toe2_03]
24 433.103577 0.000000 0.000238 -0.003297 -0.804494 0.001683 433.103546
25 433.103577 0.000000 0.000238 -0.003297 -0.804494 0.001683 433.103546
26 433.103577 0.000000 0.000238 -0.003297 -0.804494 0.001683 433.103546
[Rear_Toe3_02]
24 340.494141 -0.000358 -0.000477 -0.002600 -36.654480 -0.002600 340.494171
25 340.494141 -0.000358 -0.000477 -0.002600 -36.654480 -0.002600 340.494171
26 340.494141 -0.000358 -0.000477 -0.002600 -36.654476 -0.002600 340.494171
[Rear_Toe3_03]
24 433.103577 0.001431 -0.000238 0.006396 30.714855 -0.001650 433.103546
25 433.103577 0.001431 -0.000238 0.006396 30.714851 -0.001650 433.103546
26 433.103577 0.001431 -0.000238 0.006396 30.714855 -0.001650 433.103546
[Back_Bone]
24 1312.175781 -701.934692 0.000954 10.315129 -17.735056 -87.856407 1488.125488
25 1312.175781 -701.934692 0.000954 10.201992 -18.073395 -89.288673 1488.125488
26 1312.175781 -701.934692 0.000954 10.047587 -18.379951 -90.495865 1488.125488
[Head]
24 1406.159424 809.709290 0.001431 -0.814089 -1.360235 41.189713 1622.625488
25 1406.159424 809.709290 0.001431 -0.829162 -1.350955 41.861614 1622.625488
26 1406.159424 809.709290 0.001431 -0.844125 -1.341498 42.533485 1622.625488
[Motor_Bone]
24 1158.364380 -417.834747 0.000477 -9.417583 -15.168559 -104.878502 1231.419434
25 1158.364380 -417.834747 0.000477 -9.148487 -14.891006 -102.863235 1231.419434
26 1158.364380 -417.834747 0.000477 -9.653144 -16.067055 -102.431595 1231.419434
[Ping_Mechanism]
24 1234.011475 -632.547363 -63.855625 0.000103 -0.000053 82.120995 1388.156372
25 1233.620850 -630.477478 -65.864342 0.000103 -0.000053 82.120995 1386.960815
26 1233.230225 -628.407593 -67.873062 0.000103 -0.000053 82.120995 1385.770508
[BN_LookIK]
24 193.241119 1380.371704 -0.002861 0.000000 89.965736 -31.038179 1393.832153
25 193.241119 1380.371704 -0.002861 0.000000 89.965736 -31.038179 1393.832153
26 193.241119 1380.371704 -0.002861 0.000000 89.965736 -31.038179 1393.832153
[bottomMouth]
24 -435.092926 615.759399 -0.000954 -0.000022 0.000016 73.527184 753.966492
25 -435.092926 615.759399 -0.000954 -0.000022 0.000016 73.527184 753.966492
26 -435.092926 615.759399 -0.000954 -0.000022 0.000016 73.527184 753.966492
[L_Mouth01]
24 554.440979 7.658243 838.222046 150.204178 23.759130 109.605339 1005.027161
25 554.440979 7.658243 838.222046 150.204178 23.759130 109.605339 1005.027161
26 554.440979 7.658243 838.222046 150.204178 23.759130 109.605339 1005.027161
[L_mouthFront]
24 551.629089 934.514771 339.150421 0.000081 2.804060 79.119301 1136.941284
25 551.629089 934.514771 339.150421 0.000081 2.804060 79.119301 1136.941284
26 551.629089 934.514771 339.150421 0.000081 2.804060 79.119301 1136.941284
[mouthGun]
24 55.332661 1627.420898 0.000000 0.000023 0.000009 -11.038128 1628.361328
25 55.332661 1627.420898 0.000000 0.000023 0.000009 -11.038128 1628.361328
26 55.332661 1627.420898 0.000000 0.000023 0.000009 -11.038128 1628.361328
[R_Mouth01]
24 554.442383 7.659197 -838.223938 29.795891 -23.759109 109.605331 1005.029541
25 554.442383 7.659197 -838.223938 29.795891 -23.759109 109.605331 1005.029541
26 554.442383 7.659197 -838.223938 29.795891 -23.759109 109.605331 1005.029541
[R_mouthFront]
24 551.629089 934.514282 -339.151367 0.000029 -2.803930 79.119133 1136.941162
25 551.629089 934.514282 -339.151367 0.000029 -2.803930 79.119133 1136.941162
26 551.629089 934.514282 -339.151367 0.000029 -2.803930 79.119133 1136.941162
[TopMouth]
24 461.269867 -56.106091 -0.008583 -0.000059 -0.000268 92.025169 464.669525
25 461.269867 -56.106091 -0.008583 -0.000059 -0.000268 92.025169 464.669525
26 461.269867 -56.106091 -0.008583 -0.000059 -0.000268 92.025169 464.669525
[weapon_bone]
24 -987.239868 1448.372803 0.001431 0.000000 89.965736 -31.038221 1752.833740
25 -987.239868 1448.372803 0.001431 0.000000 89.965736 -31.038221 1752.833740
26 -987.239868 1448.372803 0.001431 0.000000 89.965736 -31.038221 1752.833740
